<svg width="21" height="19" viewBox="0 0 21 19" fill="none" xmlns="http://www.w3.org/2000/svg">
<path d="M17.85 1.9H15.75V0.95C15.75 0.698044 15.6394 0.456408 15.4425 0.278249C15.2455 0.100089 14.9785 0 14.7 0C14.4215 0 14.1545 0.100089 13.9575 0.278249C13.7606 0.456408 13.65 0.698044 13.65 0.95V1.9H7.35V0.95C7.35 0.698044 7.23937 0.456408 7.04246 0.278249C6.84555 0.100089 6.57848 0 6.3 0C6.02152 0 5.75445 0.100089 5.55754 0.278249C5.36062 0.456408 5.25 0.698044 5.25 0.95V1.9H3.15C2.31457 1.9 1.51335 2.20027 0.922614 2.73475C0.331874 3.26922 0 3.99413 0 4.75V16.15C0 16.9059 0.331874 17.6308 0.922614 18.1653C1.51335 18.6997 2.31457 19 3.15 19H17.85C18.6854 19 19.4866 18.6997 20.0774 18.1653C20.6681 17.6308 21 16.9059 21 16.15V4.75C21 3.99413 20.6681 3.26922 20.0774 2.73475C19.4866 2.20027 18.6854 1.9 17.85 1.9ZM18.9 16.15C18.9 16.402 18.7894 16.6436 18.5925 16.8218C18.3955 16.9999 18.1285 17.1 17.85 17.1H3.15C2.87152 17.1 2.60445 16.9999 2.40754 16.8218C2.21062 16.6436 2.1 16.402 2.1 16.15V9.5H18.9V16.15ZM18.9 7.6H2.1V4.75C2.1 4.49804 2.21062 4.25641 2.40754 4.07825C2.60445 3.90009 2.87152 3.8 3.15 3.8H5.25V4.75C5.25 5.00196 5.36062 5.24359 5.55754 5.42175C5.75445 5.59991 6.02152 5.7 6.3 5.7C6.57848 5.7 6.84555 5.59991 7.04246 5.42175C7.23937 5.24359 7.35 5.00196 7.35 4.75V3.8H13.65V4.75C13.65 5.00196 13.7606 5.24359 13.9575 5.42175C14.1545 5.59991 14.4215 5.7 14.7 5.7C14.9785 5.7 15.2455 5.59991 15.4425 5.42175C15.6394 5.24359 15.75 5.00196 15.75 4.75V3.8H17.85C18.1285 3.8 18.3955 3.90009 18.5925 4.07825C18.7894 4.25641 18.9 4.49804 18.9 4.75V7.6Z" fill="#305690"/>
</svg>
