<svg width="20" height="21" viewBox="0 0 20 21" fill="none" xmlns="http://www.w3.org/2000/svg">
<path fill-rule="evenodd" clip-rule="evenodd" d="M14.6076 0.568343C15.7165 0.80461 16.7428 1.35236 17.5762 2.15272C18.4095 2.95308 19.0185 3.97577 19.3376 5.11084C19.6333 6.15159 19.6772 7.25272 19.4655 8.31647C19.1594 9.77387 18.3892 11.0795 17.2809 12.0196C16.1726 12.9597 14.7918 13.4786 13.3646 13.4915C12.7624 13.4915 12.1629 13.4009 11.5868 13.2183L10.4867 14.5667L9.96562 14.8183H8.625V16.9745L7.9375 17.6933H5.875V19.8495L5.1875 20.5683H1.0625L0.375 19.8495V16.5332L0.57575 16.0258L7.415 8.87566C7.2209 8.22206 7.12806 7.54022 7.14 6.85597C7.15253 5.89864 7.36692 4.956 7.76787 4.09523C8.16883 3.23445 8.74648 2.47675 9.45965 1.87614C10.1728 1.27552 11.0039 0.846782 11.8938 0.620479C12.7836 0.394176 13.7103 0.375883 14.6076 0.566906V0.568343ZM16.4199 10.9183C17.2836 10.1871 17.8843 9.1709 18.1235 8.03616L18.129 8.04334C18.2994 7.21362 18.2687 6.35255 18.0398 5.53836C17.8109 4.72417 17.3911 3.98268 16.8184 3.38126C16.2457 2.77984 15.5384 2.33755 14.7606 2.09459C13.9829 1.85162 13.1594 1.81568 12.365 1.99003C11.2936 2.23864 10.3325 2.85486 9.63483 3.74056C8.93714 4.62625 8.54294 5.73052 8.515 6.87753C8.50125 7.53303 8.61125 8.18278 8.84363 8.78941L8.69238 9.56997L1.75 16.8308V19.1308H4.5V16.9745L5.1875 16.2558H7.25V14.0995L7.9375 13.3808H9.64937L10.8539 11.9203L11.6252 11.719C12.1813 11.9462 12.7731 12.0622 13.3701 12.0612C14.4812 12.0522 15.5564 11.6493 16.4199 10.9183ZM15.2676 6.99109C15.376 6.83448 15.4531 6.65661 15.4943 6.46813C15.5354 6.27965 15.5397 6.08443 15.507 5.89415C15.4744 5.70387 15.4053 5.52244 15.304 5.36071C15.2026 5.19899 15.0712 5.06029 14.9174 4.95292C14.7636 4.84555 14.5907 4.77171 14.409 4.73582C14.2273 4.69993 14.0405 4.70272 13.8599 4.74404C13.6792 4.78535 13.5084 4.86434 13.3576 4.97627C13.2069 5.0882 13.0792 5.23078 12.9824 5.39547C12.7961 5.71228 12.7345 6.09224 12.8105 6.45553C12.8865 6.81883 13.0942 7.13719 13.3901 7.34374C13.6859 7.55028 14.0467 7.62894 14.3968 7.56318C14.747 7.49742 15.0591 7.29237 15.2676 6.99109Z" fill="#F1A91C"/>
</svg>
