<svg width="20" height="21" viewBox="0 0 20 21" fill="none" xmlns="http://www.w3.org/2000/svg">
<path fill-rule="evenodd" clip-rule="evenodd" d="M14.2326 0.132308C15.3415 0.368575 16.3678 0.91633 17.2012 1.71669C18.0345 2.51704 18.6435 3.53973 18.9626 4.67481C19.2583 5.71556 19.3022 6.81668 19.0905 7.88043C18.7844 9.33783 18.0142 10.6434 16.9059 11.5836C15.7976 12.5237 14.4168 13.0426 12.9896 13.0554C12.3874 13.0554 11.7879 12.9649 11.2118 12.7823L10.1117 14.1307L9.59062 14.3822H8.25V16.5385L7.5625 17.2572H5.5V19.4135L4.8125 20.1322H0.6875L0 19.4135V16.0972L0.20075 15.5897L7.04 8.43962C6.8459 7.78603 6.75306 7.10419 6.765 6.41993C6.77753 5.46261 6.99192 4.51996 7.39287 3.65919C7.79383 2.79842 8.37148 2.04072 9.08465 1.4401C9.79782 0.839488 10.6289 0.410747 11.5188 0.184444C12.4086 -0.0418595 13.3353 -0.0601517 14.2326 0.130871V0.132308ZM16.0449 10.4823C16.9086 9.75106 17.5093 8.73486 17.7485 7.60012L17.754 7.60731C17.9244 6.77759 17.8937 5.91651 17.6648 5.10232C17.4359 4.28814 17.0161 3.54665 16.4434 2.94522C15.8707 2.3438 15.1634 1.90152 14.3856 1.65855C13.6079 1.41559 12.7844 1.37965 11.99 1.554C10.9186 1.80261 9.95751 2.41882 9.25983 3.30452C8.56214 4.19022 8.16794 5.29449 8.14 6.4415C8.12625 7.097 8.23625 7.74675 8.46863 8.35337L8.31738 9.13393L1.375 16.3947V18.6947H4.125V16.5385L4.8125 15.8197H6.875V13.6635L7.5625 12.9447H9.27437L10.4789 11.4842L11.2502 11.283C11.8063 11.5102 12.3981 11.6262 12.9951 11.6251C14.1062 11.6162 15.1814 11.2133 16.0449 10.4823ZM14.8926 6.55506C15.001 6.39844 15.0781 6.22057 15.1193 6.03209C15.1604 5.84361 15.1647 5.64839 15.132 5.45811C15.0994 5.26783 15.0303 5.0864 14.929 4.92468C14.8276 4.76296 14.6962 4.62426 14.5424 4.51689C14.3886 4.40951 14.2157 4.33568 14.034 4.29978C13.8523 4.26389 13.6655 4.26669 13.4849 4.308C13.3042 4.34932 13.1334 4.42831 12.9826 4.54024C12.8319 4.65217 12.7042 4.79474 12.6074 4.95943C12.4211 5.27624 12.3595 5.6562 12.4355 6.0195C12.5115 6.3828 12.7192 6.70116 13.0151 6.9077C13.3109 7.11425 13.6717 7.1929 14.0218 7.12714C14.372 7.06139 14.6841 6.85633 14.8926 6.55506Z" fill="#AE3BE4"/>
</svg>
