<svg width="24" height="22" viewBox="0 0 24 22" fill="none" xmlns="http://www.w3.org/2000/svg">
<path d="M23.8265 10.8245L12.5345 0.205856C12.3934 0.0740064 12.2026 0 12.0038 0C11.8049 0 11.6141 0.0740064 11.473 0.205856L0.181016 10.8245C0.0576877 10.96 -0.00675667 11.1342 0.000561426 11.3123C0.00787953 11.4905 0.0864211 11.6595 0.220491 11.7856C0.354561 11.9117 0.534284 11.9855 0.723746 11.9924C0.913208 11.9993 1.09845 11.9387 1.24247 11.8227L12 1.70663L22.7575 11.8298C22.9015 11.9458 23.0868 12.0064 23.2763 11.9995C23.4657 11.9926 23.6454 11.9187 23.7795 11.7927C23.9136 11.6666 23.9921 11.4976 23.9994 11.3194C24.0068 11.1412 23.9423 10.967 23.819 10.8316L23.8265 10.8245Z" fill="#305691"/>
<path d="M19.5 20.6453H15.75V13.8719H8.25V20.6453H4.5V11.1626L3 12.5172V20.6453C3 21.0046 3.15804 21.3492 3.43934 21.6032C3.72064 21.8573 4.10218 22 4.5 22H9.75V15.2266H14.25V22H19.5C19.8978 22 20.2794 21.8573 20.5607 21.6032C20.842 21.3492 21 21.0046 21 20.6453V12.3547L19.5 11V20.6453Z" fill="#305691"/>
</svg>
