<svg width="18" height="22" viewBox="0 0 18 22" fill="none" xmlns="http://www.w3.org/2000/svg">
<path d="M8.59375 12.5C7.82117 12.5 7.06594 12.2709 6.42356 11.8417C5.78118 11.4125 5.2805 10.8024 4.98485 10.0886C4.68919 9.37484 4.61184 8.58942 4.76256 7.83168C4.91328 7.07394 5.28532 6.37792 5.83162 5.83162C6.37792 5.28532 7.07394 4.91328 7.83168 4.76256C8.58942 4.61184 9.37484 4.68919 10.0886 4.98485C10.8024 5.2805 11.4125 5.78118 11.8417 6.42356C12.2709 7.06594 12.5 7.82117 12.5 8.59375C12.4988 9.62937 12.0868 10.6222 11.3545 11.3545C10.6222 12.0868 9.62937 12.4988 8.59375 12.5ZM8.59375 6.25C8.1302 6.25 7.67706 6.38746 7.29163 6.645C6.90621 6.90253 6.6058 7.26857 6.42841 7.69684C6.25102 8.1251 6.2046 8.59635 6.29504 9.05099C6.38547 9.50564 6.60869 9.92325 6.93647 10.251C7.26425 10.5788 7.68187 10.802 8.13651 10.8925C8.59115 10.9829 9.0624 10.9365 9.49067 10.7591C9.91893 10.5817 10.285 10.2813 10.5425 9.89587C10.8 9.51044 10.9375 9.0573 10.9375 8.59375C10.9369 7.97234 10.6898 7.37656 10.2503 6.93716C9.81095 6.49775 9.21516 6.25062 8.59375 6.25Z" fill="#70C11F"/>
<path d="M8.59376 21.875L2.00313 14.1023C1.91156 13.9856 1.82093 13.8682 1.73126 13.75C0.605463 12.267 -0.00271968 10.4556 9.14288e-06 8.59375C9.14288e-06 6.31455 0.90542 4.12869 2.51706 2.51705C4.1287 0.905411 6.31456 0 8.59376 0C10.873 0 13.0588 0.905411 14.6705 2.51705C16.2821 4.12869 17.1875 6.31455 17.1875 8.59375C17.1902 10.4548 16.5823 12.2653 15.457 13.7477L15.4563 13.75C15.4563 13.75 15.2219 14.0578 15.1867 14.0992L8.59376 21.875ZM2.97813 12.8086C2.9797 12.8086 3.16095 13.0492 3.20235 13.1008L8.59376 19.4594L13.9922 13.0922C14.0266 13.0492 14.2094 12.807 14.2102 12.8063C15.1298 11.5946 15.6268 10.1149 15.625 8.59375C15.625 6.72895 14.8842 4.94052 13.5656 3.62191C12.247 2.30329 10.4586 1.5625 8.59376 1.5625C6.72896 1.5625 4.94053 2.30329 3.62191 3.62191C2.3033 4.94052 1.56251 6.72895 1.56251 8.59375C1.56087 10.1158 2.05843 11.5964 2.97892 12.8086H2.97813Z" fill="#70C11F"/>
</svg>
