<svg width="22" height="15" viewBox="0 0 22 15" fill="none" xmlns="http://www.w3.org/2000/svg">
<path d="M21.2143 0H0.785714C0.351116 0 0 0.304688 0 0.681818V14.3182C0 14.6953 0.351116 15 0.785714 15H21.2143C21.6489 15 22 14.6953 22 14.3182V0.681818C22 0.304688 21.6489 0 21.2143 0ZM20.2321 2.3608V13.4659H1.76786V2.3608L1.09018 1.9027L2.05513 0.826705L3.10603 1.53622H18.8964L19.9473 0.826705L20.9123 1.9027L20.2321 2.3608ZM18.8964 1.53409L11 6.8608L3.10357 1.53409L2.05268 0.824574L1.08772 1.90057L1.7654 2.35866L10.1529 8.01776C10.3941 8.18037 10.6909 8.26865 10.9963 8.26865C11.3018 8.26865 11.5985 8.18037 11.8397 8.01776L20.2321 2.3608L20.9098 1.9027L19.9449 0.826705L18.8964 1.53409Z" fill="#FFA15D"/>
</svg>
