<svg width="308" height="308" viewBox="0 0 308 308" fill="none" xmlns="http://www.w3.org/2000/svg">
<g filter="url(#filter0_d)">
<circle cx="154" cy="150" r="150" fill="#0B4874"/>
</g>
<g filter="url(#filter1_d)">
<circle cx="169" cy="139" r="135" fill="#D2EEFA" fill-opacity="0.98"/>
</g>
<g filter="url(#filter2_d)">
<path d="M92.6348 211.812C92.6113 211.555 92.5996 211.291 92.5996 211.021C92.5996 210.611 92.6289 210.201 92.6875 209.791C92.8516 208.139 93.209 206.68 93.7598 205.414C94.3223 204.137 95.0195 203.088 95.8516 202.268C96.6953 201.447 97.7031 200.773 98.875 200.246C100.059 199.719 101.301 199.35 102.602 199.139C103.902 198.916 105.338 198.805 106.908 198.805C108.713 198.805 110.898 198.928 113.465 199.174L113.184 201.547L110.916 201.758L109.281 215.188C109.48 215.199 110.201 215.287 111.443 215.451L111.162 217.824C109.768 217.977 108.291 218.053 106.732 218.053C105.994 218.053 105.238 218.035 104.465 218C104.195 217.121 104.025 216.295 103.955 215.521C102.537 217.338 100.668 218.246 98.3477 218.246C97.5742 218.246 96.8711 218.135 96.2383 217.912C95.6172 217.678 95.0957 217.361 94.6738 216.963C94.2637 216.553 93.9004 216.078 93.584 215.539C93.2793 214.988 93.0566 214.402 92.916 213.781C92.7871 213.148 92.6934 212.492 92.6348 211.812ZM98.0312 211.215C98.0312 211.613 98.084 212.006 98.1895 212.393C98.3066 212.779 98.4531 213.113 98.6289 213.395C98.8164 213.699 99.0742 213.934 99.4023 214.098C99.7188 214.262 100.082 214.338 100.492 214.326C100.516 214.326 100.545 214.326 100.58 214.326C102.045 214.303 103.281 213.201 104.289 211.021L105.361 202.162C105.209 202.15 105.062 202.145 104.922 202.145C103.961 202.145 103.082 202.314 102.285 202.654C101.371 203.041 100.621 203.604 100.035 204.342C99.4492 205.068 98.9863 205.912 98.6465 206.873C98.3184 207.822 98.1191 208.865 98.0488 210.002C98.0371 210.271 98.0312 210.541 98.0312 210.811C98.0312 210.939 98.0312 211.074 98.0312 211.215ZM113.992 217.895L114.273 215.486C115.551 215.369 116.295 215.305 116.506 215.293L118.914 195.939C118.703 195.928 117.977 195.84 116.734 195.676L117.016 193.268C118.938 192.869 121.1 192.67 123.502 192.67C123.924 192.67 124.352 192.676 124.785 192.688L122.025 215.293C122.318 215.305 123.051 215.369 124.223 215.486L123.889 217.895C122.225 218.07 120.566 218.158 118.914 218.158C117.262 218.158 115.621 218.07 113.992 217.895ZM137.564 210.336C137.564 208.988 137.746 207.535 138.109 205.977H148.182C148.182 207.453 148.012 208.906 147.672 210.336H137.564ZM160.223 217.895L160.504 215.451C160.75 215.428 161.119 215.393 161.611 215.346C162.115 215.287 162.49 215.246 162.736 215.223L165.109 195.939C165.051 195.939 164.324 195.852 162.93 195.676L163.246 193.268C165.168 192.869 167.33 192.67 169.732 192.67C170.154 192.67 170.582 192.676 171.016 192.688L170.014 200.932C171.045 200.123 172.176 199.508 173.406 199.086C174.461 198.723 175.492 198.541 176.5 198.541C176.664 198.541 176.828 198.547 176.992 198.559C177.871 198.617 178.615 198.805 179.225 199.121C179.846 199.438 180.32 199.836 180.648 200.316C180.977 200.785 181.211 201.365 181.352 202.057C181.492 202.701 181.562 203.34 181.562 203.973C181.562 204.02 181.562 204.066 181.562 204.113C181.551 204.793 181.492 205.572 181.387 206.451L180.314 215.223C180.561 215.246 180.924 215.287 181.404 215.346C181.896 215.393 182.266 215.428 182.512 215.451L182.213 217.824C180.525 218.035 178.85 218.141 177.186 218.141C175.533 218.141 173.887 218.035 172.246 217.824L172.527 215.451C172.785 215.428 173.166 215.393 173.67 215.346C174.174 215.287 174.549 215.246 174.795 215.223L175.779 207.277C175.791 207.172 175.809 207.014 175.832 206.803C175.879 206.416 175.914 206.123 175.938 205.924C175.961 205.725 175.979 205.449 175.99 205.098C176.002 204.734 175.984 204.459 175.938 204.271C175.902 204.072 175.838 203.85 175.744 203.604C175.65 203.346 175.521 203.152 175.357 203.023C175.193 202.895 174.977 202.789 174.707 202.707C174.438 202.613 174.121 202.572 173.758 202.584C172.352 202.584 170.945 203.369 169.539 204.939L168.256 215.223C168.525 215.246 168.906 215.287 169.398 215.346C169.891 215.393 170.242 215.428 170.453 215.451V215.486L170.154 217.824V217.895C168.467 218.07 166.797 218.158 165.145 218.158C163.492 218.158 161.852 218.07 160.223 217.895ZM184.305 217.895L184.586 215.486C185.887 215.369 186.619 215.305 186.783 215.293L188.436 202.057C188.131 202.021 187.762 201.975 187.328 201.916C186.895 201.846 186.549 201.793 186.291 201.758L186.572 199.385C188.4 198.975 190.451 198.77 192.725 198.77C193.252 198.77 193.791 198.781 194.342 198.805L192.338 215.293C192.631 215.305 193.363 215.369 194.535 215.486L194.201 217.895C192.514 218.07 190.844 218.158 189.191 218.158C187.551 218.158 185.922 218.07 184.305 217.895ZM188.91 194.744C189.039 193.631 189.396 192.857 189.982 192.424C190.58 191.979 191.4 191.756 192.443 191.756C193.51 191.744 194.277 191.961 194.746 192.406C195.109 192.746 195.291 193.303 195.291 194.076C195.291 194.287 195.279 194.51 195.256 194.744C195.127 195.834 194.764 196.607 194.166 197.064C193.568 197.51 192.754 197.732 191.723 197.732C190.691 197.721 189.936 197.492 189.455 197.047C189.068 196.684 188.875 196.115 188.875 195.342C188.875 195.154 188.887 194.955 188.91 194.744ZM196.029 216.629C196.146 214.801 196.387 213.219 196.75 211.883H198.842C199.076 212.738 199.486 213.424 200.072 213.939C200.67 214.443 201.379 214.73 202.199 214.801C202.316 214.812 202.434 214.818 202.551 214.818C203.066 214.818 203.576 214.713 204.08 214.502C204.689 214.244 205.059 213.805 205.188 213.184C205.258 212.832 205.211 212.504 205.047 212.199C204.883 211.883 204.719 211.666 204.555 211.549C204.391 211.42 204.127 211.244 203.764 211.021C203.693 210.975 203.641 210.939 203.605 210.916C203.383 210.775 202.92 210.512 202.217 210.125C201.525 209.738 200.939 209.393 200.459 209.088C199.979 208.783 199.527 208.455 199.105 208.104C198.004 207.154 197.453 206.023 197.453 204.711C197.453 204.465 197.471 204.213 197.506 203.955C197.646 203.111 197.904 202.373 198.279 201.74C198.654 201.107 199.088 200.604 199.58 200.229C200.072 199.842 200.652 199.531 201.32 199.297C201.988 199.051 202.639 198.887 203.271 198.805C203.916 198.723 204.613 198.676 205.363 198.664C205.434 198.664 205.504 198.664 205.574 198.664C207.309 198.664 209.148 198.939 211.094 199.49C211.094 200.908 210.877 202.725 210.443 204.939H208.316C208.152 204.26 207.824 203.674 207.332 203.182C206.852 202.678 206.195 202.385 205.363 202.303C205.094 202.291 204.83 202.285 204.572 202.285C204.443 202.285 204.309 202.285 204.168 202.285C203.77 202.297 203.4 202.414 203.061 202.637C202.732 202.859 202.527 203.17 202.445 203.568C202.422 203.674 202.416 203.779 202.428 203.885C202.428 204.494 202.756 205.01 203.412 205.432C203.881 205.725 204.613 206.158 205.609 206.732C206.617 207.295 207.373 207.74 207.877 208.068C208.896 208.713 209.629 209.41 210.074 210.16C210.379 210.664 210.525 211.232 210.514 211.865C210.514 212.182 210.479 212.521 210.408 212.885C209.717 216.459 207.051 218.246 202.41 218.246C201.098 218.246 199.879 218.094 198.754 217.789C197.629 217.484 196.721 217.098 196.029 216.629ZM212.377 211.812C212.354 211.555 212.342 211.291 212.342 211.021C212.342 210.611 212.371 210.201 212.43 209.791C212.594 208.139 212.951 206.68 213.502 205.414C214.064 204.137 214.762 203.088 215.594 202.268C216.438 201.447 217.445 200.773 218.617 200.246C219.801 199.719 221.043 199.35 222.344 199.139C223.645 198.916 225.08 198.805 226.65 198.805C228.455 198.805 230.641 198.928 233.207 199.174L232.926 201.547L230.658 201.758L229.023 215.188C229.223 215.199 229.943 215.287 231.186 215.451L230.904 217.824C229.51 217.977 228.033 218.053 226.475 218.053C225.736 218.053 224.98 218.035 224.207 218C223.938 217.121 223.768 216.295 223.697 215.521C222.279 217.338 220.41 218.246 218.09 218.246C217.316 218.246 216.613 218.135 215.98 217.912C215.359 217.678 214.838 217.361 214.416 216.963C214.006 216.553 213.643 216.078 213.326 215.539C213.021 214.988 212.799 214.402 212.658 213.781C212.529 213.148 212.436 212.492 212.377 211.812ZM217.773 211.215C217.773 211.613 217.826 212.006 217.932 212.393C218.049 212.779 218.195 213.113 218.371 213.395C218.559 213.699 218.816 213.934 219.145 214.098C219.461 214.262 219.824 214.338 220.234 214.326C220.258 214.326 220.287 214.326 220.322 214.326C221.787 214.303 223.023 213.201 224.031 211.021L225.104 202.162C224.951 202.15 224.805 202.145 224.664 202.145C223.703 202.145 222.824 202.314 222.027 202.654C221.113 203.041 220.363 203.604 219.777 204.342C219.191 205.068 218.729 205.912 218.389 206.873C218.061 207.822 217.861 208.865 217.791 210.002C217.779 210.271 217.773 210.541 217.773 210.811C217.773 210.939 217.773 211.074 217.773 211.215ZM233.734 217.824L234.016 215.451C235.035 215.311 235.779 215.223 236.248 215.188L238.621 195.939C238.562 195.939 237.836 195.852 236.441 195.676L236.758 193.268C238.68 192.869 240.842 192.67 243.244 192.67C243.666 192.67 244.094 192.676 244.527 192.688L243.525 201.072C245.201 199.584 247.1 198.84 249.221 198.84C250.768 198.84 252.051 199.268 253.07 200.123C254.09 200.979 254.699 202.174 254.898 203.709C254.98 204.506 255.027 205.309 255.039 206.117C255.039 206.223 255.033 206.322 255.021 206.416C255.01 207.318 254.881 208.238 254.635 209.176C254.389 210.113 254.066 210.998 253.668 211.83C253.27 212.65 252.725 213.43 252.033 214.168C251.354 214.895 250.568 215.51 249.678 216.014C248.471 216.705 247.129 217.203 245.652 217.508C244.176 217.801 242.447 217.965 240.467 218C239.67 218.035 238.896 218.053 238.146 218.053C236.576 218.053 235.105 217.977 233.734 217.824ZM241.838 214.766C241.955 214.766 242.072 214.766 242.189 214.766C243.584 214.766 244.75 214.508 245.688 213.992C246.707 213.43 247.521 212.58 248.131 211.443C248.963 209.873 249.379 208.086 249.379 206.082C249.379 205.895 249.373 205.713 249.361 205.537C249.35 204.705 249.162 204.072 248.799 203.639C248.447 203.193 247.984 202.941 247.41 202.883C247.281 202.871 247.152 202.865 247.023 202.865C246.426 202.865 245.787 203.035 245.107 203.375C244.287 203.797 243.59 204.389 243.016 205.15L241.838 214.766Z" fill="#0B4874"/>
</g>
<path d="M155.208 103.463V41.5536C155.208 35.4811 161.332 34 163.209 34C168.78 35.5403 170.32 38.8876 170.32 41.5536V67.7689C177.906 62.9109 184.099 67.7689 184.099 72.3603C191.803 66.1397 195.804 71.6197 197.285 75.3225C206.619 71.7679 209.187 78.2847 208.99 81.0987C208.595 93.145 208.99 116.959 208.99 118.57C208.99 121.088 200.545 135.307 199.508 142.416L200.396 152.487H154.023V140.639C154.023 139.898 141.282 116.941 140.393 115.46C139.682 114.275 140.096 92.0588 140.393 81.0987C152.008 77.0702 155.11 94.3298 155.208 103.463Z" fill="#F79C7E"/>
<path d="M154.023 152.487C154.023 148.785 154.023 141.231 154.023 140.639C154.023 139.898 141.282 116.941 140.393 115.46C139.682 114.275 140.096 92.0588 140.393 81.0987C152.008 77.0702 155.11 94.3298 155.208 103.463V41.5536C155.208 35.4811 161.332 34 163.209 34C168.78 35.5403 170.32 38.8876 170.32 41.5536V67.7689M154.023 152.487H144.541V175M154.023 152.487H200.396M200.396 152.487L199.508 142.416C200.545 135.307 208.99 121.088 208.99 118.57C208.99 116.959 208.595 93.145 208.99 81.0987C209.187 78.2847 206.619 71.7679 197.285 75.3225M200.396 152.487H207.952V175M197.285 75.3225V86.5788M197.285 75.3225C195.804 71.6197 191.803 66.1397 184.099 72.3603M184.099 72.3603V86.5788M184.099 72.3603C184.099 67.7689 177.906 62.9109 170.32 67.7689M170.32 67.7689V86.5788" stroke="#0B4874" stroke-opacity="0.8" stroke-width="3"/>
<path d="M147 155H175.748H205V175H147V155Z" fill="#00BAF2"/>
<path d="M170.5 149.5V86.5H167.5V41C166.3 38.2 164 37.1667 163 37C159.4 37.4 158.167 39.8333 158 41V103.5H152C151.5 85.5 145.808 83.5 143.5 83.5C143.1 83.5 143 96.5 143 103C143 112 143 114 143.5 115L147.5 122C156 137 156.5 138.667 157 140V149.5H170.5Z" fill="#FFC39C"/>
<defs>
<filter id="filter0_d" x="0" y="0" width="308" height="308" filterUnits="userSpaceOnUse" color-interpolation-filters="sRGB">
<feFlood flood-opacity="0" result="BackgroundImageFix"/>
<feColorMatrix in="SourceAlpha" type="matrix" values="0 0 0 0 0 0 0 0 0 0 0 0 0 0 0 0 0 0 127 0"/>
<feOffset dy="4"/>
<feGaussianBlur stdDeviation="2"/>
<feColorMatrix type="matrix" values="0 0 0 0 0 0 0 0 0 0 0 0 0 0 0 0 0 0 0.25 0"/>
<feBlend mode="normal" in2="BackgroundImageFix" result="effect1_dropShadow"/>
<feBlend mode="normal" in="SourceGraphic" in2="effect1_dropShadow" result="shape"/>
</filter>
<filter id="filter1_d" x="30" y="4" width="278" height="278" filterUnits="userSpaceOnUse" color-interpolation-filters="sRGB">
<feFlood flood-opacity="0" result="BackgroundImageFix"/>
<feColorMatrix in="SourceAlpha" type="matrix" values="0 0 0 0 0 0 0 0 0 0 0 0 0 0 0 0 0 0 127 0"/>
<feOffset dy="4"/>
<feGaussianBlur stdDeviation="2"/>
<feColorMatrix type="matrix" values="0 0 0 0 0 0 0 0 0 0 0 0 0 0 0 0 0 0 0.25 0"/>
<feBlend mode="normal" in2="BackgroundImageFix" result="effect1_dropShadow"/>
<feBlend mode="normal" in="SourceGraphic" in2="effect1_dropShadow" result="shape"/>
</filter>
<filter id="filter2_d" x="88.5996" y="189.755" width="170.439" height="34.4907" filterUnits="userSpaceOnUse" color-interpolation-filters="sRGB">
<feFlood flood-opacity="0" result="BackgroundImageFix"/>
<feColorMatrix in="SourceAlpha" type="matrix" values="0 0 0 0 0 0 0 0 0 0 0 0 0 0 0 0 0 0 127 0"/>
<feOffset dy="2"/>
<feGaussianBlur stdDeviation="2"/>
<feColorMatrix type="matrix" values="0 0 0 0 0 0 0 0 0 0 0 0 0 0 0 0 0 0 0.25 0"/>
<feBlend mode="normal" in2="BackgroundImageFix" result="effect1_dropShadow"/>
<feBlend mode="normal" in="SourceGraphic" in2="effect1_dropShadow" result="shape"/>
</filter>
</defs>
</svg>
