<svg width="23" height="21" viewBox="0 0 23 21" fill="none" xmlns="http://www.w3.org/2000/svg">
<path d="M4.3125 5.6534C4.3125 5.43918 4.38823 5.23374 4.52302 5.08227C4.65781 4.9308 4.84063 4.8457 5.03125 4.8457H15.0938C15.2844 4.8457 15.4672 4.9308 15.602 5.08227C15.7368 5.23374 15.8125 5.43918 15.8125 5.6534C15.8125 5.86761 15.7368 6.07305 15.602 6.22452C15.4672 6.37599 15.2844 6.46109 15.0938 6.46109H5.03125C4.84063 6.46109 4.65781 6.37599 4.52302 6.22452C4.38823 6.07305 4.3125 5.86761 4.3125 5.6534Z" fill="#305691"/>
<path d="M12.2188 9.69153C12.0281 9.69153 11.8453 9.77662 11.7105 9.9281C11.5757 10.0796 11.5 10.285 11.5 10.4992C11.5 10.7134 11.5757 10.9189 11.7105 11.0703C11.8453 11.2218 12.0281 11.3069 12.2188 11.3069H15.0938C15.2844 11.3069 15.4672 11.2218 15.602 11.0703C15.7368 10.9189 15.8125 10.7134 15.8125 10.4992C15.8125 10.285 15.7368 10.0796 15.602 9.9281C15.4672 9.77662 15.2844 9.69153 15.0938 9.69153H12.2188Z" fill="#305691"/>
<path d="M11.5 15.3468C11.5 15.1325 11.5757 14.9271 11.7105 14.7756C11.8453 14.6242 12.0281 14.5391 12.2188 14.5391H15.0938C15.2844 14.5391 15.4672 14.6242 15.602 14.7756C15.7368 14.9271 15.8125 15.1325 15.8125 15.3468C15.8125 15.561 15.7368 15.7664 15.602 15.9179C15.4672 16.0694 15.2844 16.1544 15.0938 16.1544H12.2188C12.0281 16.1544 11.8453 16.0694 11.7105 15.9179C11.5757 15.7664 11.5 15.561 11.5 15.3468Z" fill="#305690"/>
<path d="M5.03125 9.69153C4.84063 9.69153 4.65781 9.77662 4.52302 9.9281C4.38823 10.0796 4.3125 10.285 4.3125 10.4992V15.3454C4.3125 15.5596 4.38823 15.765 4.52302 15.9165C4.65781 16.068 4.84063 16.1531 5.03125 16.1531H9.34375C9.53437 16.1531 9.71719 16.068 9.85198 15.9165C9.98678 15.765 10.0625 15.5596 10.0625 15.3454V10.4992C10.0625 10.285 9.98678 10.0796 9.85198 9.9281C9.71719 9.77662 9.53437 9.69153 9.34375 9.69153H5.03125ZM5.75 14.5377V11.3069H8.625V14.5377H5.75Z" fill="#305690"/>
<path d="M0 3.23077C0 2.37392 0.302901 1.55216 0.842068 0.94627C1.38123 0.340383 2.1125 0 2.875 0H17.25C18.0125 0 18.7438 0.340383 19.2829 0.94627C19.8221 1.55216 20.125 2.37392 20.125 3.23077V4.84615C20.8875 4.84615 21.6188 5.18654 22.1579 5.79242C22.6971 6.39831 23 7.22007 23 8.07692V16.9615C23 18.0326 22.6214 19.0598 21.9474 19.8172C21.2735 20.5745 20.3594 21 19.4062 21H3.59375C2.64063 21 1.72654 20.5745 1.05259 19.8172C0.378626 19.0598 0 18.0326 0 16.9615V3.23077ZM18.6875 3.23077C18.6875 2.80234 18.536 2.39146 18.2665 2.08852C17.9969 1.78558 17.6312 1.61538 17.25 1.61538H2.875C2.49375 1.61538 2.12812 1.78558 1.85853 2.08852C1.58895 2.39146 1.4375 2.80234 1.4375 3.23077V16.9615C1.4375 17.6042 1.66468 18.2205 2.06905 18.6749C2.47343 19.1293 3.02188 19.3846 3.59375 19.3846H19.4062C19.9781 19.3846 20.5266 19.1293 20.9309 18.6749C21.3353 18.2205 21.5625 17.6042 21.5625 16.9615V8.07692C21.5625 7.6485 21.4111 7.23762 21.1415 6.93467C20.8719 6.63173 20.5062 6.46154 20.125 6.46154V16.9615C20.125 17.1758 20.0493 17.3812 19.9145 17.5327C19.7797 17.6841 19.5969 17.7692 19.4062 17.7692C19.2156 17.7692 19.0328 17.6841 18.898 17.5327C18.7632 17.3812 18.6875 17.1758 18.6875 16.9615V3.23077Z" fill="#305690"/>
</svg>
